# xmcd
#
# Track frame offsets: 
#        150
#        30385
#        60335
#        90460
#        136897
#
# Disc length: 2529 seconds
#
# Revision: 2
# Processed by: cddbd v1.5.2PL0 Copyright (c) Steve Scherf et al.
# Submitted via: ExactAudioCopy v0.99pb5
#
DISCID=3009df05
DTITLE=Freddie Hubbard - Ready For Freddie
DYEAR=1961
DGENRE=Jazz
TTITLE0=Arietis
TTITLE1=Weaver Of Dreams
TTITLE2=Marie Antoinette
TTITLE3=Birdlike
TTITLE4=Crisis
EXTD=YEAR: 1961
EXTT0=
EXTT1=
EXTT2=
EXTT3=
EXTT4=
PLAYORDER=
